# xmcd
#
# Track frame offsets:
#	150
#	22311
#	35523
#	51544
#	68773
#	88803
#	108027
#	123662
#	146352
#	161102
#	179967
#	203913
#	228866
#	260488
#	281636
#	303489
#
# Disc length: 4516 seconds
#
# Revision: 0
# Processed by: cddbd v1.5.1PL2 Copyright (c) Steve Scherf et al.
# Submitted via: audiograbber 1.83.01
#
DISCID=f511a210
DTITLE=Eric Clapton - 461 Ocean Boulevard (Deluxe) - Disc2
DYEAR=1900
DGENRE=
TTITLE0=Motherless Children
TTITLE1=Give Me Strength
TTITLE2=Willie And The Hand-Jive
TTITLE3=Get Ready
TTITLE4=I Shot The Sheriff
TTITLE5=I Can't Hold Out
TTITLE6=Please Be With Me
TTITLE7=Let It Grow
TTITLE8=Steady Rollin' Man
TTITLE9=Mainline Florida
TTITLE10=Walkin' Down The Road
TTITLE11=Ain't That Lovin' You?
TTITLE12=Meet Me (Down At The Bottom)
TTITLE13=Smile
TTITLE14=Can't Find My Way Home
TTITLE15=I Shot The Sheriff
EXTD=
EXTT0=
EXTT1=
EXTT2=
EXTT3=
EXTT4=
EXTT5=
EXTT6=
EXTT7=
EXTT8=
EXTT9=
EXTT10=
EXTT11=
EXTT12=
EXTT13=
EXTT14=
EXTT15=
PLAYORDER=
